<svg xmlns="http://www.w3.org/2000/svg" width="18" height="15" viewBox="0 0 18 15"><path d="M15.43 8.823v5.45q0 .296-.21.512-.212.215-.502.215h-4.286v-4.36H7.575V15H3.29q-.29 0-.503-.215-.212-.216-.212-.51V8.822q0-.012.005-.034.005-.023.005-.035L9.003 3.37l6.418 5.385q.013.022.013.068zm2.49-.784l-.692.84q-.09.102-.235.126h-.033q-.145 0-.235-.08L9 2.372 1.275 8.926q-.133.092-.268.08-.145-.022-.235-.126L.08 8.04q-.09-.115-.08-.267.013-.153.125-.245L8.15.725Q8.51.43 9 .43t.85.295l2.722 2.317V.827q0-.16.1-.26.1-.103.257-.103h2.143q.157 0 .257.102.1.1.1.26v4.635l2.445 2.068q.112.092.124.245.01.152-.08.266z" fill="#fff"/></svg>