<svg xmlns="http://www.w3.org/2000/svg" width="12" height="14" viewBox="0 0 12 14"><path d="M9.43 8.55q0 .804-.49 1.27-.49.464-1.3.464H1.79q-.81 0-1.3-.465Q0 9.353 0 8.55q0-.355.023-.693.023-.338.094-.73.07-.392.177-.727.106-.335.288-.653t.415-.542q.233-.224.573-.358.34-.134.747-.134.06 0 .28.144.222.144.5.32.278.178.723.322.445.143.894.143.45 0 .894-.144.445-.145.723-.322.28-.177.5-.32.22-.145.28-.145.41 0 .748.134.34.134.573.358.235.224.416.542.18.318.288.653.107.335.177.727.07.392.095.73.024.338.023.693zM7.285 2.57q0 1.066-.753 1.82-.753.752-1.818.752T2.897 4.39q-.753-.754-.753-1.82 0-1.064.753-1.817Q3.65 0 4.715 0t1.818.753q.753.753.753 1.818z" fill="#CDCDCD"/><path d="M11.274 11.245q0 .804-.49 1.27-.488.464-1.298.464H3.633q-.81 0-1.3-.466-.488-.465-.488-1.27 0-.354.023-.692.023-.338.094-.73.07-.392.177-.727.105-.335.287-.653t.415-.542q.233-.224.573-.358.34-.134.747-.134.06 0 .28.144.222.144.5.32.278.178.723.322.445.144.894.144.448 0 .893-.144t.723-.32l.5-.322q.22-.144.28-.144.408 0 .747.134.34.134.573.358.234.224.415.542.182.318.29.653.106.335.176.727.07.392.094.73.024.338.023.693zM9.13 5.265q0 1.066-.752 1.82-.753.752-1.818.752t-1.818-.753Q3.99 6.33 3.99 5.266t.752-1.818q.753-.753 1.818-.753t1.818.753q.753.753.753 1.818z" fill="#fff"/></svg>